<?xml version="1.0" encoding="utf-8"?>
<!-- Generator: Adobe Illustrator 27.6.1, SVG Export Plug-In . SVG Version: 6.00 Build 0)  -->
<svg version="1.1" id="Layer_1" xmlns="http://www.w3.org/2000/svg" xmlns:xlink="http://www.w3.org/1999/xlink" x="0px" y="0px"
	 viewBox="0 0 800 800" style="enable-background:new 0 0 800 800;" xml:space="preserve">
<style type="text/css">
	.st0{display:none;}
	.st1{fill:#FFFFFF;}
</style>
<g id="Base" class="st0">
</g>
<g id="Dibujo">
	<path class="st1" d="M624.8,510.6L573,480.7l29.5-7.9c8.9-2.4,14.2-11.5,11.8-20.4c-2.4-8.9-11.5-14.2-20.4-11.8l-61.7,16.5
		l-45.8-26.4l54.4-14.6c6.9-1.8,11.8-7.8,12.3-14.9c0.5-7.1-3.6-13.7-10.1-16.5l-48-20.3l37.2-21.5l61.6,16.5
		c1.5,0.4,2.9,0.6,4.3,0.6c7.4,0,14.1-4.9,16.1-12.4c2.4-8.9-2.9-18-11.8-20.4l-29.4-7.9l51.8-29.9c8-4.6,10.7-14.8,6.1-22.8
		c-4.6-8-14.8-10.7-22.8-6.1l-51.8,29.9l7.9-29.4c2.4-8.9-2.9-18-11.8-20.4c-8.9-2.4-18,2.9-20.4,11.8L515.6,314l-37.2,21.5
		l6.4-51.7c0.8-6.6-2.4-13.1-8.2-16.5c-5.8-3.3-13.1-2.9-18.4,1.1l-41.6,31.4v-42.9l45.1-45.1c6.5-6.5,6.5-17.1,0-23.6
		s-17.1-6.5-23.6,0l-21.5,21.5V150c0-9.2-7.5-16.7-16.7-16.7c-9.2,0-16.7,7.5-16.7,16.7v59.8l-21.6-21.6c-6.5-6.5-17.1-6.5-23.6,0
		c-6.5,6.5-6.5,17.1,0,23.6l45.1,45.1v42.9l-41.6-31.5c-5.7-4.3-13.5-4.5-19.4-0.5c-5.9,4-8.6,11.3-6.8,18.1l14.6,54.5L284.4,314
		l-16.5-61.6c-2.4-8.9-11.5-14.2-20.4-11.8c-8.9,2.4-14.2,11.5-11.8,20.4l7.9,29.4l-51.8-29.9c-8-4.6-18.2-1.9-22.8,6.1
		c-4.6,8-1.9,18.2,6.1,22.8l51.8,29.9l-29.4,7.9c-8.9,2.4-14.2,11.5-11.8,20.4c2,7.5,8.7,12.4,16.1,12.4c1.4,0,2.9-0.2,4.3-0.6
		l61.6-16.5l45.8,26.4l-54.4,14.6c-6.9,1.8-11.8,7.8-12.3,14.9c-0.5,7.1,3.6,13.7,10.1,16.5l48,20.3l-37.2,21.5l-61.6-16.5
		c-8.9-2.4-18,2.9-20.4,11.8c-2.4,8.9,2.9,18,11.8,20.4l29.4,7.9l-51.7,29.9c-8,4.6-10.7,14.8-6.1,22.8c3.1,5.3,8.7,8.3,14.4,8.3
		c2.8,0,5.7-0.7,8.3-2.2l51.8-29.9l-7.9,29.5c-2.4,8.9,2.9,18,11.8,20.4c1.4,0.4,2.9,0.6,4.3,0.6c7.4,0,14.1-4.9,16.1-12.4
		l16.5-61.6l37.2-21.5l-6.4,51.7c-0.8,6.6,2.4,13.1,8.2,16.5c5.8,3.3,13.1,2.9,18.4-1.1l41.6-31.4v42.9l-45.1,45.1
		c-6.5,6.5-6.5,17.1,0,23.6c6.5,6.5,17.1,6.5,23.6,0l21.6-21.6V650c0,9.2,7.5,16.7,16.7,16.7c9.2,0,16.7-7.5,16.7-16.7v-59.8
		l21.5,21.5c3.3,3.3,7.5,4.9,11.8,4.9c4.3,0,8.5-1.6,11.8-4.9c6.5-6.5,6.5-17.1,0-23.6l-45.1-45.1v-42.9l41.6,31.5
		c3,2.2,6.5,3.4,10,3.4c3.2,0,6.5-0.9,9.3-2.8c5.9-4,8.6-11.3,6.8-18.2l-14.6-54.5l45.8,26.4l16.5,61.6c2,7.5,8.7,12.4,16.1,12.4
		c1.4,0,2.9-0.2,4.3-0.6c8.9-2.4,14.2-11.5,11.8-20.4l-7.9-29.4l51.7,29.9c2.6,1.5,5.5,2.2,8.3,2.2c5.8,0,11.4-3,14.5-8.3
		C635.5,525.4,632.8,515.2,624.8,510.6z M485.4,396.5l-39.8,10.7l-12.3-7.1l25.6-14.8L485.4,396.5z M446.9,318.8l-4.7,37.6
		l-25.5,14.8v-29.5L446.9,318.8z M360.3,324.2l23,17.4v29.5L371,364L360.3,324.2z M314.6,403.5l39.7-10.7l12.3,7.1l-25.5,14.8
		L314.6,403.5z M353.1,481.2l4.7-37.6l25.6-14.8v29.5L353.1,481.2z M439.6,475.8l-23-17.4v-29.5L429,436L439.6,475.8z"/>
</g>
</svg>
