<?xml version="1.0" encoding="utf-8"?>
<!-- Generator: Adobe Illustrator 27.6.1, SVG Export Plug-In . SVG Version: 6.00 Build 0)  -->
<svg version="1.1" id="Layer_1" xmlns="http://www.w3.org/2000/svg" xmlns:xlink="http://www.w3.org/1999/xlink" x="0px" y="0px"
	 viewBox="0 0 800 800" style="enable-background:new 0 0 800 800;" xml:space="preserve">
<style type="text/css">
	.st0{display:none;}
	.st1{fill:#FFFFFF;}
</style>
<g id="Base" class="st0">
</g>
<g id="Dibujo">
	<g>
		<path class="st1" d="M550,362.4c-4.2,0-9.3,0.7-14.1,1.5c-17.5-59.8-72.1-101.5-135.9-101.5c-63.9,0-118.5,41.8-135.9,101.5
			c-4.8-0.9-9.8-1.5-14.1-1.5c-50.5,0-91.7,41.1-91.7,91.7s41.1,91.7,91.7,91.7h300c50.5,0,91.7-41.1,91.7-91.7
			S600.5,362.4,550,362.4z M550,512.4H250c-32.2,0-58.3-26.2-58.3-58.3s26.2-58.3,58.3-58.3c2.3,0,6,0.6,9.9,1.3v15.3
			c0,9.2,7.5,16.7,16.7,16.7s16.7-7.5,16.7-16.7v-26.9c9-52.1,53.6-89.8,106.7-89.8s97.8,37.7,106.7,89.9v26.8
			c0,9.2,7.5,16.7,16.7,16.7s16.7-7.5,16.7-16.7v-15.3c3.9-0.8,7.6-1.4,9.9-1.4c32.2,0,58.3,26.2,58.3,58.3S582.2,512.4,550,512.4z"
			/>
	</g>
</g>
</svg>
