<?xml version="1.0" encoding="utf-8"?>
<!-- Generator: Adobe Illustrator 27.6.1, SVG Export Plug-In . SVG Version: 6.00 Build 0)  -->
<svg version="1.1" id="Layer_1" xmlns="http://www.w3.org/2000/svg" xmlns:xlink="http://www.w3.org/1999/xlink" x="0px" y="0px"
	 viewBox="0 0 800 800" style="enable-background:new 0 0 800 800;" xml:space="preserve">
<style type="text/css">
	.st0{display:none;}
	.st1{fill:#FFFFFF;}
</style>
<g id="Base" class="st0">
</g>
<g id="Dibujo">
	<g>
		<path class="st1" d="M333.3,300h100c9.2,0,16.7-7.5,16.7-16.7s-7.5-16.7-16.7-16.7h-100c-9.2,0-16.7,7.5-16.7,16.7
			S324.1,300,333.3,300z"/>
		<path class="st1" d="M233.3,350h200c9.2,0,16.7-7.5,16.7-16.7s-7.5-16.7-16.7-16.7h-200c-9.2,0-16.7,7.5-16.7,16.7
			S224.1,350,233.3,350z"/>
		<path class="st1" d="M183.3,400h200c9.2,0,16.7-7.5,16.7-16.7s-7.5-16.7-16.7-16.7h-200c-9.2,0-16.7,7.5-16.7,16.7
			S174.1,400,183.3,400z"/>
		<path class="st1" d="M675,433.3c0-9.2-7.5-16.7-16.7-16.7h-500c-9.2,0-16.7,7.5-16.7,16.7s7.5,16.7,16.7,16.7h500
			C667.5,450,675,442.5,675,433.3z"/>
		<path class="st1" d="M658.3,466.6h-475c-9.2,0-16.7,7.5-16.7,16.7s7.5,16.7,16.7,16.7h475c9.2,0,16.7-7.5,16.7-16.7
			S667.5,466.6,658.3,466.6z"/>
		<path class="st1" d="M333.3,516.6h-100c-9.2,0-16.7,7.5-16.7,16.7s7.5,16.7,16.7,16.7h100c9.2,0,16.7-7.5,16.7-16.7
			S342.5,516.6,333.3,516.6z"/>
		<path class="st1" d="M491.6,350h66.7c9.2,0,16.7-7.5,16.7-16.7s-7.5-16.7-16.7-16.7h-66.7c-9.2,0-16.7,7.5-16.7,16.7
			C475,342.5,482.4,350,491.6,350z"/>
		<path class="st1" d="M416.6,383.3c0,9.2,7.5,16.7,16.7,16.7h175c9.2,0,16.7-7.5,16.7-16.7s-7.5-16.7-16.7-16.7h-175
			C424.1,366.6,416.6,374.1,416.6,383.3z"/>
		<path class="st1" d="M608.3,516.6h-225c-9.2,0-16.7,7.5-16.7,16.7s7.5,16.7,16.7,16.7h225c9.2,0,16.7-7.5,16.7-16.7
			S617.5,516.6,608.3,516.6z"/>
	</g>
</g>
</svg>
