<?xml version="1.0" encoding="utf-8"?>
<!-- Generator: Adobe Illustrator 27.6.1, SVG Export Plug-In . SVG Version: 6.00 Build 0)  -->
<svg version="1.1" id="Layer_1" xmlns="http://www.w3.org/2000/svg" xmlns:xlink="http://www.w3.org/1999/xlink" x="0px" y="0px"
	 viewBox="0 0 875 875" style="enable-background:new 0 0 875 875;" xml:space="preserve">
<style type="text/css">
	.st0{fill-rule:evenodd;clip-rule:evenodd;fill:#FFFFFF;}
</style>
<path class="st0" d="M125.9,438c0-69.7,23.3-134,62.3-186L623,686.8c-52,38.9-116.3,62.3-186,62.3
	C265.5,749.1,125.9,609.5,125.9,438 M748.1,438c0,69.7-23.3,134-62.3,186L251,189.2c52-38.9,116.3-62.3,186-62.3
	C608.5,126.9,748.1,266.5,748.1,438 M437,38C216.1,38,37,217.1,37,438s179.1,400,400,400s400-179.1,400-400S657.9,38,437,38"/>
</svg>
