<?xml version="1.0" encoding="utf-8"?>
<!-- Generator: Adobe Illustrator 27.6.1, SVG Export Plug-In . SVG Version: 6.00 Build 0)  -->
<svg version="1.1" id="Layer_1" xmlns="http://www.w3.org/2000/svg" xmlns:xlink="http://www.w3.org/1999/xlink" x="0px" y="0px"
	 viewBox="0 0 800 800" style="enable-background:new 0 0 800 800;" xml:space="preserve">
<style type="text/css">
	.st0{display:none;}
	.st1{fill:#FFFFFF;}
</style>
<g id="Base" class="st0">
</g>
<g id="Dibujo">
	<g>
		<path class="st1" d="M563,439.8c7.9-16,12-33.5,12-51.6c0-64.3-52.3-116.7-116.7-116.7c-38.3,0-74.1,19-95.8,50.2
			c-1.4,0-2.8-0.2-4.2-0.2c-63.9,0-118.5,41.8-135.9,101.5c-4.8-0.9-9.8-1.5-14.1-1.5c-50.5,0-91.7,41.1-91.7,91.7
			c0,50.6,41.1,91.7,91.7,91.7h300c50.5,0,91.7-41.1,91.7-91.7C600.1,483.1,585.5,456.5,563,439.8z M458.4,304.9
			c45.9,0,83.3,37.4,83.3,83.3c0,12.9-3,25.4-8.6,36.8c-7.9-2.2-16.1-3.5-24.7-3.5c-4.2,0-9.3,0.7-14.1,1.5
			c-13.4-45.9-48.8-81.1-93.4-95C416.2,313.4,436.7,304.9,458.4,304.9z M508.4,571.5h-300c-32.2,0-58.3-26.2-58.3-58.3
			s26.2-58.3,58.3-58.3c2.3,0,6,0.6,9.9,1.3v15.3c0,9.2,7.5,16.7,16.7,16.7s16.7-7.5,16.7-16.7v-26.8c8.9-52.1,53.6-89.8,106.7-89.8
			s97.8,37.8,106.7,89.9v26.8c0,9.2,7.5,16.7,16.7,16.7s16.7-7.5,16.7-16.7v-15.4c3.9-0.8,7.7-1.4,9.9-1.4
			c32.2,0,58.3,26.2,58.3,58.3S540.6,571.5,508.4,571.5z"/>
		<path class="st1" d="M458.4,238.2c9.2,0,16.7-7.5,16.7-16.7v-33.3c0-9.2-7.5-16.7-16.7-16.7s-16.7,7.5-16.7,16.7v33.3
			C441.7,230.7,449.2,238.2,458.4,238.2z"/>
		<path class="st1" d="M658.4,371.5h-33.3c-9.2,0-16.7,7.5-16.7,16.7s7.5,16.7,16.7,16.7h33.3c9.2,0,16.7-7.5,16.7-16.7
			S667.6,371.5,658.4,371.5z"/>
		<path class="st1" d="M576.3,287c4.3,0,8.5-1.6,11.8-4.9l23.6-23.6c6.5-6.5,6.5-17.1,0-23.6s-17.1-6.5-23.6,0l-23.6,23.6
			c-6.5,6.5-6.5,17.1,0,23.6C567.7,285.4,572,287,576.3,287z"/>
		<path class="st1" d="M328.8,282.1c3.3,3.3,7.5,4.9,11.8,4.9s8.5-1.6,11.8-4.9c6.5-6.5,6.5-17.1,0-23.6l-23.6-23.6
			c-6.5-6.5-17.1-6.5-23.6,0s-6.5,17.1,0,23.6L328.8,282.1z"/>
	</g>
</g>
</svg>
