<?xml version="1.0" encoding="utf-8"?>
<!-- Generator: Adobe Illustrator 27.6.1, SVG Export Plug-In . SVG Version: 6.00 Build 0)  -->
<svg version="1.1" id="Layer_1" xmlns="http://www.w3.org/2000/svg" xmlns:xlink="http://www.w3.org/1999/xlink" x="0px" y="0px"
	 viewBox="0 0 800 800" style="enable-background:new 0 0 800 800;" xml:space="preserve">
<style type="text/css">
	.st0{display:none;}
	.st1{fill:#FFFFFF;}
</style>
<g id="Base" class="st0">
</g>
<g id="Dibujo">
	<path class="st1" d="M400,575c-9.2,0-16.7,7.5-16.7,16.7V625c0,9.2,7.5,16.7,16.7,16.7s16.7-7.5,16.7-16.7v-33.3
		C416.7,582.5,409.2,575,400,575z M325,525c-9.2,0-16.7,7.5-16.7,16.7V575c0,9.2,7.5,16.7,16.7,16.7s16.7-7.5,16.7-16.7v-33.3
		C341.7,532.5,334.2,525,325,525z M475,525c-9.2,0-16.7,7.5-16.7,16.7V575c0,9.2,7.5,16.7,16.7,16.7s16.7-7.5,16.7-16.7v-33.3
		C491.7,532.5,484.2,525,475,525z M550,258.3c-4.2,0-9.3,0.7-14.1,1.5C518.5,200,463.8,158.3,400,158.3
		c-63.9,0-118.5,41.8-135.9,101.5c-4.8-0.9-9.8-1.5-14.1-1.5c-50.5,0-91.7,41.1-91.7,91.7s41.1,91.7,91.7,91.7h58.3V475
		c0,9.2,7.5,16.7,16.7,16.7s16.7-7.5,16.7-16.7v-33.3h116.7V475c0,9.2,7.5,16.7,16.7,16.7s16.7-7.5,16.7-16.7v-33.3H550
		c50.5,0,91.7-41.1,91.7-91.7S600.5,258.3,550,258.3z M550,408.3H250c-32.2,0-58.3-26.2-58.3-58.3s26.2-58.3,58.3-58.3
		c2.3,0,6,0.6,9.9,1.3v15.3c0,9.2,7.5,16.7,16.7,16.7s16.7-7.5,16.7-16.7v-26.8c8.9-52.1,53.6-89.8,106.7-89.8
		c53.1,0,97.8,37.7,106.7,89.8v26.8c0,9.2,7.5,16.7,16.7,16.7s16.7-7.5,16.7-16.7V293c3.9-0.8,7.7-1.4,9.9-1.4
		c32.2,0,58.3,26.2,58.3,58.3S582.2,408.3,550,408.3z M400,475c-9.2,0-16.7,7.5-16.7,16.7V525c0,9.2,7.5,16.7,16.7,16.7
		s16.7-7.5,16.7-16.7v-33.3C416.7,482.5,409.2,475,400,475z"/>
</g>
</svg>
