<?xml version="1.0" encoding="utf-8"?>
<!-- Generator: Adobe Illustrator 27.6.1, SVG Export Plug-In . SVG Version: 6.00 Build 0)  -->
<svg version="1.1" id="Layer_1" xmlns="http://www.w3.org/2000/svg" xmlns:xlink="http://www.w3.org/1999/xlink" x="0px" y="0px"
	 viewBox="0 0 800 800" style="enable-background:new 0 0 800 800;" xml:space="preserve">
<style type="text/css">
	.st0{display:none;}
	.st1{fill:#FFFFFF;}
</style>
<g id="Base" class="st0">
</g>
<g id="Dibujo">
	<path class="st1" d="M517.8,298.8c4.3,0,8.5-1.6,11.8-4.9l23.6-23.6c6.5-6.5,6.5-17.1,0-23.6c-6.5-6.5-17.1-6.5-23.6,0l-23.6,23.6
		c-6.5,6.5-6.5,17.1,0,23.6C509.3,297.2,513.6,298.8,517.8,298.8z M250,400c0-9.2-7.5-16.7-16.7-16.7H200c-9.2,0-16.7,7.5-16.7,16.7
		c0,9.2,7.5,16.7,16.7,16.7h33.3C242.5,416.7,250,409.2,250,400z M270.4,506.1l-23.6,23.6c-6.5,6.5-6.5,17.1,0,23.6
		c3.2,3.3,7.5,4.9,11.8,4.9s8.5-1.6,11.8-4.9l23.6-23.6c6.5-6.5,6.5-17.1,0-23.6C287.4,499.6,276.9,499.6,270.4,506.1z M270.4,293.9
		c3.2,3.3,7.5,4.9,11.8,4.9c4.3,0,8.5-1.6,11.8-4.9c6.5-6.5,6.5-17.1,0-23.6l-23.6-23.6c-6.5-6.5-17.1-6.5-23.6,0
		c-6.5,6.5-6.5,17.1,0,23.6L270.4,293.9z M400,250c9.2,0,16.7-7.5,16.7-16.7V200c0-9.2-7.5-16.7-16.7-16.7
		c-9.2,0-16.7,7.5-16.7,16.7v33.3C383.3,242.5,390.8,250,400,250z M600,383.3h-33.3c-9.2,0-16.7,7.5-16.7,16.7
		c0,9.2,7.5,16.7,16.7,16.7H600c9.2,0,16.7-7.5,16.7-16.7C616.7,390.8,609.2,383.3,600,383.3z M529.6,506.1
		c-6.5-6.5-17.1-6.5-23.6,0c-6.5,6.5-6.5,17.1,0,23.6l23.6,23.6c3.2,3.3,7.5,4.9,11.8,4.9s8.5-1.6,11.8-4.9c6.5-6.5,6.5-17.1,0-23.6
		L529.6,506.1z M400,550c-9.2,0-16.7,7.5-16.7,16.7V600c0,9.2,7.5,16.7,16.7,16.7c9.2,0,16.7-7.5,16.7-16.7v-33.3
		C416.7,557.5,409.2,550,400,550z M400,283.3c-64.3,0-116.7,52.3-116.7,116.7S335.7,516.7,400,516.7S516.7,464.3,516.7,400
		S464.3,283.3,400,283.3z M400,483.3c-46,0-83.3-37.4-83.3-83.3s37.4-83.3,83.3-83.3s83.3,37.4,83.3,83.3S445.9,483.3,400,483.3z"/>
</g>
</svg>
