<?xml version="1.0" encoding="utf-8"?>
<!-- Generator: Adobe Illustrator 27.6.1, SVG Export Plug-In . SVG Version: 6.00 Build 0)  -->
<svg version="1.1" id="Layer_1" xmlns="http://www.w3.org/2000/svg" xmlns:xlink="http://www.w3.org/1999/xlink" x="0px" y="0px"
	 viewBox="0 0 498 444" style="enable-background:new 0 0 498 444;" xml:space="preserve">
<style type="text/css">
	.st0{display:none;}
	.st1{fill:#FFFFFF;}
</style>
<g id="Base" class="st0">
</g>
<g id="Dibujo">
	<path class="st1" d="M400,105.3c-4.2,0-9.3,0.7-14.1,1.5C368.5,47,313.8,5.3,250,5.3c-63.9,0-118.5,41.8-135.9,101.5
		c-4.8-0.9-9.8-1.5-14.1-1.5c-50.5,0-91.7,41.1-91.7,91.7s41.1,91.7,91.7,91.7h93.9l-32.7,49.1c-3.4,5.1-3.7,11.7-0.8,17.1
		c2.9,5.4,8.6,8.8,14.7,8.8H194l-32.7,49.1c-5.1,7.7-3,18,4.6,23.1c2.8,1.9,6.1,2.8,9.2,2.8c5.4,0,10.7-2.6,13.9-7.4l50-75
		c3.4-5.1,3.7-11.7,0.8-17.1c-2.9-5.4-8.6-8.8-14.7-8.8h-18.9l27.8-41.7h43.3l-16.1,24.1c-3.4,5.1-3.7,11.7-0.8,17.1
		c2.9,5.4,8.6,8.8,14.7,8.8H294l-16.1,24.1c-5.1,7.7-3,18,4.6,23.1c2.8,1.9,6,2.8,9.2,2.8c5.4,0,10.7-2.6,13.9-7.4l33.3-50
		c3.4-5.1,3.7-11.7,0.8-17.1c-2.9-5.4-8.6-8.8-14.7-8.8h-18.9l11.1-16.7H400c50.5,0,91.7-41.1,91.7-91.7S450.5,105.3,400,105.3z
		 M400,255.3H100c-32.2,0-58.3-26.2-58.3-58.3s26.2-58.3,58.3-58.3c2.3,0,6,0.6,9.9,1.3v15.3c0,9.2,7.5,16.7,16.7,16.7
		s16.7-7.5,16.7-16.7v-26.8c8.9-52.1,53.6-89.8,106.7-89.8s97.8,37.7,106.7,89.8v26.8c0,9.2,7.5,16.7,16.7,16.7s16.7-7.5,16.7-16.7
		V140c3.9-0.8,7.7-1.4,9.9-1.4c32.2,0,58.3,26.2,58.3,58.3S432.2,255.3,400,255.3z"/>
</g>
</svg>
